<svg width="146" height="146" viewBox="0 0 146 146" fill="none" xmlns="http://www.w3.org/2000/svg">
<rect width="146" height="146" rx="20" fill="#F43F5E"/>
<path d="M107.75 28.625L108.375 52.1875H99.4375L98.8125 46C98.3958 42.625 97.3542 40.1875 95.6875 38.6875C94.0625 37.1875 91.9375 36.4375 89.3125 36.4375H68.9375V71.375H99.3125V78.9375H68.9375V104.875C68.9375 108.167 69.5 110.375 70.625 111.5C71.7917 112.625 73.4583 113.188 75.625 113.188H83.5625V120H36.8125V113.188H42.1875C44.3958 113.188 46.0417 112.688 47.125 111.688C48.2083 110.646 48.75 108.604 48.75 105.562V43.1875C48.75 40.1458 48.1875 38.0833 47.0625 37C45.9792 35.9167 44.3542 35.375 42.1875 35.375H36.8125V28.625H107.75Z" fill="white"/>
</svg>
